<?xml version="1.0" standalone="no"?>
<!DOCTYPE svg PUBLIC "-//W3C//DTD SVG 20010904//EN"
 "http://www.w3.org/TR/2001/REC-SVG-20010904/DTD/svg10.dtd">
<svg version="1.0" xmlns="http://www.w3.org/2000/svg"
 width="340.000000pt" height="343.000000pt" viewBox="0 0 340.000000 343.000000"
 preserveAspectRatio="xMidYMid meet">

<g transform="translate(0.000000,343.000000) scale(0.100000,-0.100000)"
fill="#000000" stroke="none">
<path d="M0 1715 l0 -1715 1700 0 1700 0 0 1715 0 1715 -1700 0 -1700 0 0
-1715z m3240 5 l0 -1470 -1535 0 -1535 0 0 1470 0 1470 1535 0 1534 0 1 -1470z"/>
<path d="M247 3093 c-4 -3 -7 -629 -7 -1390 l0 -1383 1463 2 1462 3 0 1385 0
1385 -1456 3 c-800 1 -1459 -1 -1462 -5z m1433 -213 l1350 0 0 -1228 0 -1228
25 -2 25 -2 3 1288 2 1287 3 -1292 2 -1293 -1385 0 -1385 0 2 1293 c1 710 3
1266 5 1235 l4 -58 1349 0z m-453 24 c-3 -3 -12 -4 -19 -1 -8 3 -5 6 6 6 11 1
17 -2 13 -5z m-724 -11 c-13 -2 -35 -2 -50 0 -16 2 -5 4 22 4 28 0 40 -2 28
-4z m1000 0 c-13 -2 -33 -2 -45 0 -13 2 -3 4 22 4 25 0 35 -2 23 -4z m340 0
c-46 -2 -120 -2 -165 0 -46 1 -9 3 82 3 91 0 128 -2 83 -3z"/>
<path d="M1400 2695 l0 -55 -59 0 -58 0 -7 -52 c-3 -29 -6 -77 -6 -105 l0 -53
-55 0 -55 0 0 -150 0 -150 -240 0 -239 0 -3 -117 -3 -118 -53 -3 -52 -3 0
-335 0 -334 55 0 54 0 3 -57 3 -58 238 0 237 0 0 -232 0 -232 58 -3 57 -3 3
-56 3 -56 362 1 362 1 5 55 5 55 63 3 62 3 0 232 0 232 240 -1 239 0 3 55 3
56 57 3 56 3 5 52 c7 88 8 553 1 648 l-7 89 -52 0 c-59 0 -65 8 -65 83 l0 37
-240 0 -240 0 0 255 0 255 -65 0 -65 0 0 55 0 55 -305 0 -305 0 0 -55z m610
-430 l0 -295 103 -2 c56 -2 194 -3 307 -3 l205 0 -1 -27 c0 -16 -2 -153 -4
-305 -2 -153 -5 -259 -7 -235 -4 37 -7 42 -29 42 -13 0 -24 5 -24 10 0 6 -98
10 -275 10 l-275 0 0 -295 0 -295 -30 0 c-16 0 -30 5 -30 10 0 6 -83 10 -230
10 l-230 0 0 230 0 230 -45 0 -45 0 0 55 0 55 -255 0 -255 0 0 205 0 205 -46
0 -45 0 3 48 3 47 90 1 c50 0 204 1 343 2 l252 2 0 244 0 245 -42 3 -43 3 -3
48 -3 47 305 0 306 0 0 -295z m-1145 -815 c-3 -5 -17 -10 -31 -10 -13 0 -24 5
-24 10 0 6 14 10 31 10 17 0 28 -4 24 -10z m600 -570 c-3 -5 -17 -10 -31 -10
-13 0 -24 5 -24 10 0 6 14 10 31 10 17 0 28 -4 24 -10z"/>
</g>
</svg>
