<?xml version="1.0" standalone="no"?>
<!DOCTYPE svg PUBLIC "-//W3C//DTD SVG 20010904//EN"
 "http://www.w3.org/TR/2001/REC-SVG-20010904/DTD/svg10.dtd">
<svg version="1.0" xmlns="http://www.w3.org/2000/svg"
 width="900.000000pt" height="900.000000pt" viewBox="0 0 900.000000 900.000000"
 preserveAspectRatio="xMidYMid meet">

<g transform="translate(0.000000,900.000000) scale(0.100000,-0.100000)"
fill="#000000" stroke="none">
<path d="M251 8413 c-8 -26 -11 -1293 -11 -4028 l0 -3990 4296 2 c2362 2 4300
5 4306 9 7 5 8 131 3 408 -5 318 -8 5708 -3 7216 1 184 -2 354 -7 378 l-7 42
-1863 0 -1864 0 -3 -32 c-2 -28 -8 -34 -31 -36 -37 -4 -60 15 -52 45 l5 23
-2379 0 -2380 0 -10 -37z m4717 -56 c15 -10 16 -73 1 -83 -6 -3 -30 -9 -53
-11 -22 -2 -966 -5 -2096 -6 -1623 -1 -2061 1 -2084 11 -25 11 -28 16 -22 44
3 17 8 34 11 36 3 3 134 7 292 10 159 2 289 5 290 6 7 6 3651 -1 3661 -7z
m3447 -4 c49 -8 50 -9 53 -44 l3 -36 -58 -9 c-34 -6 -726 -9 -1655 -9 -1727 0
-1616 -3 -1632 50 -10 34 10 49 71 56 80 9 3156 1 3218 -8z m-7839 -170 c4
-26 4 -112 1 -192 -4 -80 -8 -1779 -9 -3775 l-3 -3630 -25 -6 c-14 -4 -35 -4
-47 1 -18 7 -20 14 -17 66 6 102 4 7234 -2 7244 -7 13 -6 170 2 271 6 74 8 77
33 80 43 6 59 -8 67 -59z m8131 -120 c10 -82 9 -7114 -2 -7265 -7 -114 -14
-126 -59 -108 -19 7 -26 19 -33 57 -8 50 -11 7251 -3 7335 l5 48 42 0 41 0 9
-67z m-599 -47 c17 -7 22 -16 22 -47 0 -42 7 -50 65 -64 34 -9 40 -14 43 -40
5 -44 29 -65 73 -65 37 0 37 -1 44 -47 7 -41 11 -1794 6 -2368 -1 -99 1 -1192
4 -2430 3 -1425 1 -2256 -5 -2265 -8 -13 -438 -15 -3757 -18 -2061 -1 -3782 1
-3823 5 l-75 8 1 3235 c0 1779 2 3249 5 3265 7 45 17 55 54 55 43 0 71 35 60
77 -10 42 -24 53 -66 53 -24 0 -40 5 -41 13 0 6 -3 23 -6 37 -2 14 -6 150 -8
304 -3 202 -1 282 7 292 10 12 546 14 3693 11 2024 -1 3691 -6 3704 -11z m247
-7477 c4 -6 4 -26 1 -45 l-7 -34 -3864 0 c-3493 0 -3865 2 -3879 16 -19 18
-21 45 -4 62 16 16 7743 18 7753 1z"/>
<path d="M7667 7903 c-12 -11 -8 -78 5 -91 7 -7 31 -12 54 -12 51 0 54 -6 54
-109 0 -98 7 -198 14 -210 4 -5 27 -13 51 -17 44 -6 45 -7 45 -43 0 -20 5 -42
12 -49 13 -13 202 -17 232 -6 19 7 22 74 4 92 -8 8 -50 12 -125 12 l-113 0 0
164 c0 175 -1 178 -50 184 -43 5 -47 9 -54 51 l-6 41 -58 0 c-32 0 -62 -3 -65
-7z"/>
<path d="M4373 7291 c-349 -5 -384 -8 -400 -24 -15 -15 -19 -42 -23 -176 -4
-134 -8 -162 -23 -179 -16 -18 -34 -20 -189 -24 l-171 -4 -23 -28 c-23 -26
-24 -33 -24 -190 0 -140 -2 -166 -17 -177 -12 -10 -65 -15 -200 -19 -168 -5
-186 -7 -199 -24 -11 -16 -14 -88 -14 -400 0 -210 -2 -826 -4 -1371 l-4 -990
-27 -20 c-23 -18 -47 -21 -192 -25 l-165 -5 -24 -28 c-23 -27 -24 -33 -24
-192 0 -120 -3 -166 -12 -172 -7 -4 -95 -10 -196 -13 -167 -5 -185 -7 -198
-24 -11 -15 -14 -57 -14 -176 0 -213 13 -200 -195 -200 -99 0 -174 -4 -188
-11 -42 -19 -51 -53 -53 -207 -2 -134 -3 -145 -25 -168 -22 -23 -27 -24 -168
-24 -80 0 -163 -5 -184 -11 -69 -19 -68 -14 -65 -418 l3 -361 28 -27 c27 -27
28 -28 196 -33 224 -7 211 5 211 -196 0 -144 1 -154 22 -173 12 -12 35 -23 52
-26 17 -3 201 -5 408 -3 l377 3 23 23 c22 21 23 32 26 177 5 204 -5 195 213
195 152 0 159 1 186 24 l28 24 5 174 c3 95 9 179 13 186 6 9 55 12 188 12 235
0 219 -15 219 209 0 145 2 170 16 175 9 3 86 6 172 6 172 0 226 10 244 43 7
13 14 85 17 179 4 109 10 161 19 170 9 9 58 14 170 16 86 1 167 5 179 7 43 10
53 51 53 222 0 87 4 163 8 170 6 9 169 13 647 18 1086 10 1462 18 1477 33 10
10 13 57 13 182 0 148 2 171 18 187 15 15 39 18 185 19 92 0 175 4 184 8 26
12 30 34 33 218 2 131 6 172 16 179 8 5 93 9 190 9 163 0 178 2 203 21 l26 20
0 1174 0 1174 -22 15 c-18 13 -56 16 -203 16 -118 0 -185 -4 -192 -11 -8 -8
-10 -218 -6 -742 3 -459 0 -837 -7 -1012 -6 -154 -14 -359 -18 -455 l-7 -175
-187 -5 c-246 -7 -231 7 -238 -210 -4 -135 -8 -162 -23 -177 -15 -15 -43 -19
-185 -24 -92 -4 -188 -12 -213 -18 -31 -8 -106 -10 -230 -7 -101 3 -377 9
-614 13 -257 5 -436 12 -445 18 -8 6 -100 12 -203 15 -152 4 -190 8 -197 20
-5 8 -10 75 -10 148 0 144 -12 191 -54 215 -13 7 -82 13 -176 15 -85 2 -161 9
-167 14 -10 8 -13 53 -13 163 l0 152 -54 26 c-51 25 -63 27 -194 27 -126 0
-142 2 -166 21 l-26 20 0 753 0 752 29 17 c24 14 54 17 163 17 l133 0 58 45
57 45 0 155 c0 152 0 155 23 160 12 2 93 6 180 7 l159 3 24 28 c23 27 24 34
24 182 0 112 3 156 13 162 13 8 107 13 817 36 291 9 446 18 467 26 23 9 82 11
220 7 103 -3 274 -9 380 -12 l192 -6 26 26 c24 25 25 28 25 170 0 80 -4 156
-9 169 -6 16 -22 29 -43 35 -20 7 -310 13 -763 16 -401 4 -788 8 -860 9 -71 2
-302 1 -512 -2z m-1349 -4117 c24 -9 24 -275 0 -298 -12 -13 -40 -16 -144 -16
-118 0 -130 2 -140 19 -11 21 -14 258 -4 285 5 14 27 16 139 16 73 0 140 -3
149 -6z m-419 -564 l0 -135 -160 0 -160 0 -3 138 -3 137 163 -2 163 -3 0 -135z"/>
</g>
</svg>
